<svg xmlns="http://www.w3.org/2000/svg" viewBox="0 0 512 512" role="img" aria-label="SunoFox neon fox icon">
  <defs>
    <radialGradient id="bg" cx="50%" cy="42%" r="72%">
      <stop offset="0" stop-color="#151020"/>
      <stop offset="0.48" stop-color="#05050c"/>
      <stop offset="1" stop-color="#000000"/>
    </radialGradient>
    <linearGradient id="orbit" x1="92" y1="116" x2="420" y2="396">
      <stop offset="0" stop-color="#22d3ee"/>
      <stop offset="0.5" stop-color="#ff0a5b"/>
      <stop offset="1" stop-color="#8b5cf6"/>
    </linearGradient>
    <linearGradient id="mask" x1="130" y1="112" x2="384" y2="412">
      <stop offset="0" stop-color="#ffffff"/>
      <stop offset="0.56" stop-color="#f5f7fb"/>
      <stop offset="1" stop-color="#aeb7c8"/>
    </linearGradient>
    <filter id="softGlow" x="-30%" y="-30%" width="160%" height="160%">
      <feGaussianBlur stdDeviation="9" result="blur"/>
      <feColorMatrix in="blur" type="matrix" values="1 0 0 0 1  0 0 0 0 0.04  0 0 0 0 0.36  0 0 0 0.68 0" result="pink"/>
      <feMerge>
        <feMergeNode in="pink"/>
        <feMergeNode in="SourceGraphic"/>
      </feMerge>
    </filter>
  </defs>
  <rect width="512" height="512" rx="108" fill="url(#bg)"/>
  <path d="M82 282C118 126 322 58 424 164" fill="none" stroke="url(#orbit)" stroke-width="12" stroke-linecap="round" opacity="0.92" filter="url(#softGlow)"/>
  <path d="M96 348c86 66 244 72 326-26" fill="none" stroke="#22d3ee" stroke-width="5" stroke-linecap="round" opacity="0.56"/>
  <path d="M146 128l86 94-112 22 28-116zm220 0l-86 94 112 22-28-116z" fill="#ff6c10"/>
  <path d="M120 234l70 132 66 48 66-48 70-132-90-40-46 34-46-34-90 40z" fill="url(#mask)"/>
  <path d="M149 257l91-10-34 43-58-23zm214 0l-91-10 34 43 58-23zm-144 80l37 34 37-34-37 10-37-10z" fill="#03030a"/>
  <path d="M170 305c32 24 62 36 86 36s54-12 86-36" fill="none" stroke="#03030a" stroke-width="9" stroke-linecap="round" opacity="0.9"/>
  <circle cx="180" cy="164" r="5" fill="#22d3ee" opacity="0.85"/>
  <circle cx="376" cy="352" r="4" fill="#ff0a5b" opacity="0.9"/>
</svg>
