<svg xmlns="http://www.w3.org/2000/svg" viewBox="0 0 512 512" role="img" aria-label="SunoFox icon">
  <defs>
    <radialGradient id="g" cx="50%" cy="50%" r="55%">
      <stop offset="0" stop-color="#17111d"/>
      <stop offset="0.62" stop-color="#05050c"/>
      <stop offset="1" stop-color="#03030a"/>
    </radialGradient>
    <filter id="glow"><feGaussianBlur stdDeviation="8" result="b"/><feMerge><feMergeNode in="b"/><feMergeNode in="SourceGraphic"/></feMerge></filter>
  </defs>
  <rect width="512" height="512" rx="92" fill="url(#g)"/>
  <circle cx="256" cy="256" r="205" fill="none" stroke="#ff0a5b" stroke-opacity=".38" stroke-width="14" filter="url(#glow)"/>
  <path d="M148 126l76 88-104 24zM364 126l-76 88 104 24zM112 224l62 150 82 54 82-54 62-150-92-42-52 36-52-36z" fill="#ff6c10"/>
  <path d="M154 156l42 62-52 16zM358 156l-42 62 52 16zM150 267l94 24-48 84zM362 267l-94 24 48 84zM204 350l52 44 52-44-52 16z" fill="#fff5e6"/>
  <path d="M176 254l66-8-24 36zM336 254l-66-8 24 36zM232 311l24 34 24-34-24 13z" fill="#03030a"/>
  <path d="M132 396L380 142" stroke="#ff0a5b" stroke-width="9" stroke-linecap="round" opacity=".7" filter="url(#glow)"/>
</svg>
