<svg xmlns="http://www.w3.org/2000/svg" width="128" height="128" viewBox="0 0 128 128" role="img" aria-label="SF Media Bridge icon">
  <rect x="8" y="8" width="112" height="112" rx="28" fill="#2f3136"/>
  <rect x="8.75" y="8.75" width="110.5" height="110.5" rx="27.25" fill="none" stroke="#444852" stroke-width="1.5"/>
  <circle cx="91" cy="34" r="7" fill="#f0b84a"/>
  <path d="M43 75c0 7.5 6.2 13 15.5 13h14c6.3 0 10.5-3 10.5-7.6 0-5.6-5.1-7.4-13.5-8.9l-15.4-2.8C40.9 66.3 34 59.4 34 48.8 34 35.9 44.4 27 59.8 27H85v15H59.9c-6.2 0-9.8 2.5-9.8 6.8 0 4.8 4.4 6.5 12.2 7.9l15.9 2.9C92.3 62.2 99 69.4 99 80.2 99 93.6 88.2 103 72.2 103H58.1C40 103 28 91.7 28 75h15Z" fill="#f4f4f2"/>
  <path d="M85 42H66v17h17v14H66v30H50V27h35v15Z" fill="#2f3136" opacity=".62"/>
</svg>
